# xmcd CD database file
#
# Track frame offsets:
#	150
#	26087
#	36278
#	57510
#
# Disc length: 1098 seconds
#
# Revision: 16
# Processed by: cddbd v1.5.1PL2 Copyright (c) Steve Scherf et al.
# Submitted via: CDex 1.51
#
DISCID=32044804
DTITLE=K - K - Only Human
DYEAR=2005
DGENRE=Pop
TTITLE0=Only Human
TTITLE1=Together Forever
TTITLE2=Steppin' Out
TTITLE3=Only Human (less vocal)
EXTD=YEAR: 2005
EXTT0=
EXTT1=
EXTT2=
EXTT3=
PLAYORDER=
